<?xml version="1.0" standalone="no"?>
<!DOCTYPE svg PUBLIC "-//W3C//DTD SVG 20010904//EN"
 "http://www.w3.org/TR/2001/REC-SVG-20010904/DTD/svg10.dtd">
<svg version="1.0" xmlns="http://www.w3.org/2000/svg"
 width="512.000000pt" height="512.000000pt" viewBox="0 0 512.000000 512.000000"
 preserveAspectRatio="xMidYMid meet">
<metadata>
Created by potrace 1.11, written by Peter Selinger 2001-2013
</metadata>
<g transform="translate(0.000000,512.000000) scale(0.100000,-0.100000)"
fill="#000000" stroke="none">
<path d="M2195 5113 c3 -7 1 -13 -4 -13 -6 0 -11 -5 -11 -11 0 -5 4 -8 9 -4 5
3 12 1 15 -4 11 -17 -24 -5 -37 14 -10 13 -16 15 -21 6 -4 -6 -11 -9 -16 -6
-5 3 -11 1 -15 -4 -3 -6 -13 -7 -22 -4 -11 4 -14 3 -9 -5 4 -7 2 -12 -3 -12
-6 0 -11 5 -11 11 0 5 -5 7 -10 4 -6 -4 -8 -9 -6 -13 2 -4 -9 -7 -25 -8 -25
-1 -27 1 -17 15 8 10 5 9 -9 -3 -13 -10 -20 -24 -16 -30 3 -6 1 -6 -7 1 -11
10 -16 9 -27 -5 -14 -16 -14 -16 -9 2 5 15 4 17 -7 8 -8 -7 -17 -9 -20 -5 -4
3 -7 1 -7 -5 0 -7 -5 -12 -11 -12 -5 0 -8 4 -5 8 3 5 -2 9 -10 9 -8 0 -13 -6
-10 -13 3 -8 -6 -11 -29 -10 -25 1 -31 -2 -24 -10 7 -8 6 -15 -2 -20 -7 -4 -9
-3 -6 3 4 6 -4 11 -18 11 -14 0 -22 -4 -20 -9 3 -4 1 -10 -4 -13 -5 -4 -13 -1
-17 5 -5 8 -3 9 6 4 9 -5 11 -4 6 3 -10 17 -55 -18 -48 -38 3 -9 -2 -6 -11 5
-9 11 -17 15 -17 8 0 -7 -7 -10 -15 -7 -8 4 -15 1 -15 -6 0 -6 -5 -8 -12 -4
-8 5 -9 1 -4 -12 6 -15 5 -17 -5 -6 -16 15 -33 16 -23 1 5 -8 1 -8 -14 0 -14
7 -23 8 -27 1 -4 -6 -11 -7 -17 -4 -7 4 -8 2 -4 -5 6 -9 11 -9 21 -1 10 8 15
8 21 -1 4 -7 3 -9 -4 -5 -6 3 -13 2 -17 -4 -4 -6 -11 -8 -16 -5 -5 4 -9 1 -9
-4 0 -6 -5 -11 -11 -11 -5 0 -7 5 -4 10 8 13 -1 13 -26 0 -10 -6 -19 -18 -19
-28 0 -10 -3 -13 -8 -7 -11 17 -62 2 -62 -18 0 -5 9 -2 19 7 15 14 21 15 27 4
4 -7 3 -10 -1 -5 -5 4 -16 0 -26 -9 -11 -10 -19 -12 -24 -5 -3 6 -11 11 -17
11 -6 0 -6 -6 2 -15 12 -14 9 -15 -18 -10 -31 5 -35 -3 -18 -35 4 -8 -2 -4
-13 9 -16 17 -21 19 -21 8 0 -9 -5 -19 -12 -23 -7 -5 -9 -2 -4 7 4 8 0 5 -9
-6 -18 -22 -24 -23 -37 -3 -6 9 -7 6 -3 -9 5 -19 3 -22 -11 -16 -11 4 -15 3
-10 -5 4 -6 -3 -12 -16 -14 -13 -2 -23 -8 -23 -15 0 -6 -4 -15 -9 -20 -5 -5
-6 -3 -2 5 10 17 -2 15 -21 -3 -8 -8 -20 -12 -26 -8 -7 4 -8 0 -3 -12 6 -16 4
-16 -11 -4 -14 12 -16 12 -8 0 6 -11 4 -13 -10 -7 -15 5 -16 4 -5 -9 11 -13
10 -14 -5 -9 -12 5 -16 4 -11 -4 4 -7 -1 -10 -15 -7 -17 3 -19 2 -9 -10 9 -11
6 -13 -14 -11 -19 2 -24 -1 -21 -16 3 -15 1 -16 -15 -8 -16 9 -18 8 -13 -7 5
-12 2 -15 -10 -10 -9 3 -16 3 -16 -1 3 -18 -2 -32 -11 -32 -5 0 -7 8 -4 18 5
16 5 16 -6 -1 -6 -9 -8 -22 -5 -27 4 -6 3 -10 -2 -9 -19 3 -33 -2 -33 -12 0
-5 6 -7 13 -3 7 4 9 3 4 -2 -5 -5 -12 -9 -15 -9 -16 -1 -32 -17 -26 -27 5 -7
2 -8 -5 -4 -9 6 -8 13 5 27 9 10 12 19 7 19 -6 0 -18 -15 -27 -32 -8 -18 -16
-26 -16 -18 -1 8 -5 5 -11 -9 -6 -15 -14 -21 -25 -17 -8 3 -12 2 -9 -4 3 -5
-1 -22 -10 -37 -9 -16 -14 -20 -11 -10 3 9 3 17 -1 17 -3 0 -12 -8 -20 -17 -8
-10 -11 -12 -7 -4 4 9 3 12 -4 7 -6 -4 -8 -14 -5 -23 5 -12 3 -14 -7 -8 -10 6
-12 4 -8 -7 4 -9 -4 -21 -22 -31 -15 -9 -29 -15 -31 -12 -3 2 -11 -5 -18 -17
-7 -11 -8 -18 -3 -14 5 3 9 -1 9 -9 0 -8 -3 -13 -6 -12 -15 3 -51 -15 -45 -24
3 -5 10 -6 16 -3 7 4 8 2 4 -4 -4 -6 -14 -8 -23 -5 -9 4 -14 2 -11 -3 5 -9
-27 -45 -38 -43 -4 0 -16 -14 -28 -32 -11 -18 -15 -30 -8 -25 8 5 10 2 6 -8
-3 -9 -11 -14 -17 -13 -5 1 -14 -9 -18 -23 -4 -14 -7 -19 -8 -12 -1 7 -5 11
-11 7 -5 -3 -6 -13 -3 -22 5 -12 3 -14 -7 -8 -10 6 -12 4 -6 -10 5 -15 4 -16
-9 -5 -9 7 -15 9 -14 4 4 -23 -2 -45 -11 -39 -5 3 -10 -1 -10 -9 0 -9 5 -16
12 -16 6 0 8 -3 5 -6 -4 -4 -14 -1 -23 7 -15 12 -17 12 -12 -1 2 -8 -2 -21 -9
-29 -8 -8 -12 -23 -9 -34 4 -15 2 -17 -6 -9 -19 19 -42 -6 -26 -26 11 -13 10
-15 -3 -10 -12 5 -15 1 -13 -18 1 -13 -2 -22 -7 -18 -5 3 -9 0 -9 -6 0 -6 -4
-9 -8 -6 -5 3 -9 -1 -9 -9 0 -8 4 -12 9 -9 15 10 8 -14 -9 -27 -10 -8 -14 -9
-10 -2 4 6 2 15 -5 19 -7 4 -10 3 -5 -1 4 -5 0 -17 -10 -27 -9 -11 -11 -18 -5
-18 7 0 12 5 12 11 0 5 5 7 11 3 8 -5 6 -10 -5 -16 -9 -5 -13 -14 -10 -20 4
-7 2 -8 -4 -4 -7 4 -12 1 -12 -9 0 -10 5 -13 12 -9 7 4 8 3 4 -5 -6 -9 -11 -9
-23 1 -14 11 -15 10 -8 -11 5 -17 4 -21 -5 -16 -9 6 -9 3 0 -15 11 -20 10 -21
-10 -10 -17 9 -21 9 -15 0 4 -6 4 -23 0 -38 -5 -21 -8 -23 -16 -11 -7 10 -8 6
-3 -13 4 -20 2 -28 -7 -28 -12 0 -12 -2 -1 -9 10 -6 9 -10 -7 -14 -15 -4 -19
-10 -14 -23 4 -12 3 -15 -5 -10 -8 5 -10 1 -5 -10 5 -13 3 -15 -8 -9 -12 8
-12 6 -1 -8 12 -14 11 -20 -6 -41 -11 -14 -23 -22 -27 -18 -5 4 -5 1 -1 -6 4
-7 12 -10 17 -7 5 4 9 1 9 -4 0 -6 -6 -11 -14 -11 -8 0 -18 -5 -22 -12 -4 -7
-3 -8 4 -4 7 4 12 2 12 -3 0 -6 -6 -11 -12 -11 -9 0 -8 -3 2 -10 13 -8 13 -11
1 -22 -10 -9 -12 -10 -7 -1 5 9 2 11 -8 7 -13 -5 -12 -9 7 -26 l22 -19 -22 11
c-16 7 -23 7 -23 0 0 -5 4 -10 9 -10 5 0 8 -8 6 -17 -1 -10 -9 -18 -17 -17
-16 1 -17 -23 -3 -45 5 -10 4 -12 -3 -7 -7 4 -12 2 -12 -3 0 -6 6 -11 13 -12
6 -1 1 -5 -13 -9 -25 -8 -25 -8 -2 -9 13 -1 20 -5 17 -11 -4 -6 -10 -8 -15 -5
-5 3 -11 1 -15 -5 -3 -5 -1 -10 4 -10 6 0 11 -4 11 -10 0 -5 -8 -7 -17 -3 -10
3 -15 3 -11 -2 4 -4 2 -15 -5 -23 -9 -13 -9 -14 0 -8 17 10 17 -26 1 -42 -7
-7 -8 -12 -4 -12 5 0 3 -7 -4 -15 -11 -13 -10 -14 6 -8 17 6 17 5 5 -10 -11
-14 -11 -17 0 -17 8 0 3 -6 -10 -13 -14 -6 -26 -18 -27 -25 -1 -7 0 -8 3 -2 2
5 10 7 15 4 7 -4 8 -2 4 4 -4 7 -2 12 4 12 6 0 8 -11 6 -25 -3 -15 0 -25 7
-25 8 0 8 -3 -1 -9 -7 -4 -12 -12 -10 -17 2 -5 -1 -9 -7 -9 -5 0 -8 5 -7 10
10 27 10 45 1 40 -5 -4 -7 -11 -4 -16 4 -5 2 -9 -4 -9 -6 0 -10 -126 -10 -347
1 -289 3 -345 14 -330 11 16 13 16 19 2 3 -9 2 -14 -3 -11 -4 3 -13 -7 -20
-22 -10 -25 -10 -25 3 -8 14 17 15 15 15 -25 -1 -66 0 -71 13 -63 8 5 7 0 -2
-11 -9 -11 -10 -16 -3 -11 7 4 13 3 13 -3 0 -5 -6 -12 -12 -14 -10 -4 -10 -6
0 -6 7 -1 12 -14 12 -32 0 -21 4 -28 12 -23 10 5 10 4 1 -6 -12 -13 2 -74 16
-66 4 3 7 -4 7 -14 0 -10 -4 -16 -8 -14 -4 3 -8 0 -8 -5 0 -6 3 -11 8 -11 4 0
15 -12 26 -26 18 -26 18 -26 -3 -15 -17 9 -20 9 -15 -3 3 -9 15 -18 26 -22 17
-5 18 -8 7 -16 -11 -7 -11 -11 -1 -15 6 -2 12 -9 12 -14 0 -6 -4 -8 -8 -5 -4
2 -8 -4 -8 -15 0 -12 5 -18 13 -14 11 4 11 0 2 -18 -11 -20 -11 -21 4 -9 14
12 16 10 14 -15 -2 -15 4 -34 13 -41 8 -8 10 -11 3 -8 -7 4 -10 -1 -8 -11 2
-10 4 -20 4 -22 1 -2 11 4 23 15 l21 19 -19 -30 c-10 -16 -13 -26 -7 -22 8 5
13 3 13 -3 0 -6 5 -8 12 -4 7 4 8 3 4 -5 -4 -6 -11 -9 -16 -6 -5 3 -11 1 -15
-5 -3 -6 4 -10 17 -10 18 0 20 -2 8 -10 -11 -7 -11 -10 -2 -10 7 0 10 -5 7
-10 -3 -5 -1 -10 5 -10 7 0 9 -7 6 -16 -3 -8 -2 -12 4 -9 6 3 10 -3 10 -14 0
-12 5 -21 11 -21 8 0 8 -4 0 -14 -8 -10 -8 -16 2 -25 8 -6 17 -8 20 -4 4 3 7
-6 7 -20 0 -15 5 -27 10 -27 6 0 10 -7 10 -16 0 -8 4 -13 8 -10 4 2 9 -4 9
-15 1 -12 -3 -17 -9 -13 -7 4 -8 2 -4 -4 4 -7 15 -12 24 -12 10 0 23 -9 30
-20 15 -25 4 -27 -14 -2 -12 15 -13 15 -7 -5 3 -12 13 -25 22 -28 9 -3 24 -19
34 -37 17 -30 17 -31 0 -17 -17 13 -17 13 -4 -4 8 -10 20 -16 27 -13 8 3 13 2
12 -2 -4 -19 15 -61 26 -55 6 4 4 -2 -4 -13 -8 -10 -10 -16 -5 -11 11 9 46
-43 38 -57 -4 -6 1 -5 10 3 15 12 17 12 12 -1 -4 -9 1 -18 10 -22 9 -3 13 -10
10 -16 -4 -6 1 -7 12 -4 16 5 15 3 -2 -11 -19 -16 -19 -16 8 -11 24 4 27 3 16
-10 -6 -8 -9 -17 -5 -21 3 -3 6 -1 6 5 0 7 5 12 11 12 5 0 8 -3 5 -8 -2 -4 2
-18 10 -32 7 -14 13 -19 14 -12 0 20 16 14 17 -8 1 -13 -2 -18 -9 -14 -7 4 -8
2 -4 -4 4 -6 13 -9 20 -6 16 6 60 -51 51 -65 -3 -6 3 -8 14 -6 13 2 18 -1 15
-10 -3 -8 6 -17 23 -23 22 -8 24 -11 8 -11 -16 -1 -17 -3 -5 -10 8 -6 18 -7
22 -5 4 3 8 -2 8 -10 0 -9 7 -16 16 -16 10 0 14 -6 11 -14 -4 -10 -1 -13 7
-10 8 3 17 0 21 -5 3 -6 11 -8 17 -5 6 4 8 2 5 -4 -12 -18 4 -42 27 -42 17 0
18 -2 6 -10 -13 -8 -12 -10 3 -10 21 0 40 -17 50 -42 3 -10 11 -18 17 -18 6 0
25 -13 43 -30 18 -16 38 -30 45 -30 7 0 11 -4 8 -8 -2 -4 5 -14 17 -22 20 -12
21 -12 9 3 -10 12 -10 17 -1 23 7 4 9 3 6 -3 -12 -19 36 -59 66 -54 12 2 8
-17 -5 -23 -7 -3 -2 -3 11 0 16 4 21 3 17 -5 -4 -6 -1 -11 6 -12 46 -2 74 -21
62 -41 -3 -5 -2 -8 3 -7 4 1 23 -2 41 -6 25 -6 30 -10 20 -17 -9 -7 -6 -8 10
-5 18 4 21 2 13 -7 -8 -9 -6 -13 7 -13 9 0 20 4 23 10 4 5 9 5 13 -2 4 -6 2
-11 -3 -11 -6 0 -11 -4 -11 -9 0 -5 10 -7 23 -4 18 4 19 3 7 -6 -13 -9 -13
-11 3 -12 9 -1 22 -3 27 -4 6 -1 17 -3 26 -4 14 -1 15 -3 3 -18 -13 -15 -12
-15 6 -6 15 9 22 8 31 -5 6 -8 21 -17 34 -19 20 -3 21 -1 9 14 -13 16 -12 17
4 4 13 -10 14 -17 7 -27 -9 -10 -7 -11 9 -7 14 3 21 1 21 -8 0 -12 2 -12 9 -1
7 11 9 11 14 -2 4 -9 14 -13 28 -11 20 4 64 -17 54 -26 -2 -3 7 -6 20 -7 14
-1 25 4 25 11 0 8 4 7 10 -3 5 -8 15 -15 22 -15 7 -1 23 -6 34 -13 12 -6 25
-8 29 -4 5 4 5 1 1 -6 -5 -9 -13 -9 -29 -1 -20 9 -21 9 -4 -4 20 -16 61 -11
50 6 -3 6 4 3 16 -6 13 -8 30 -13 37 -10 10 3 14 -2 14 -18 0 -19 2 -21 10 -9
5 8 10 10 10 5 0 -6 9 -11 20 -12 11 -1 18 2 15 7 -9 15 27 4 39 -12 6 -8 17
-13 25 -10 9 3 11 0 6 -8 -5 -8 -4 -11 3 -6 5 3 12 3 15 -1 2 -5 2 -2 1 4 -2
7 1 13 6 13 6 0 10 -4 10 -9 0 -5 10 -7 22 -3 15 4 19 2 13 -7 -6 -10 -3 -11
15 -1 13 7 20 8 16 2 -3 -6 -2 -13 3 -16 5 -3 12 1 15 10 5 14 9 14 23 3 9 -8
18 -13 20 -11 10 7 53 0 53 -9 0 -5 -5 -7 -12 -3 -7 4 -8 3 -4 -4 10 -17 15
-15 26 11 l9 22 0 -22 1 -22 343 0 c287 0 344 3 344 14 0 8 -3 12 -7 10 -4 -2
-7 2 -7 9 0 11 4 12 18 3 10 -6 15 -16 13 -22 -3 -5 2 -1 12 10 16 20 16 20
11 -3 -3 -12 -1 -20 4 -16 5 3 9 11 9 19 0 8 5 17 12 21 6 4 8 3 5 -3 -4 -6 2
-13 14 -16 15 -4 18 -2 10 7 -8 9 -7 13 4 13 8 0 15 -5 15 -10 0 -5 9 1 21 14
11 13 18 19 15 13 -3 -7 1 -17 9 -24 13 -11 14 -10 9 5 -6 15 -4 16 16 5 15
-8 25 -9 32 -2 6 6 18 8 27 5 14 -4 14 -3 1 6 -13 9 -13 12 -1 23 10 10 12 10
7 1 -9 -17 6 -17 23 0 11 9 13 9 7 0 -4 -7 -2 -13 3 -13 6 0 11 6 11 13 0 8 4
7 10 -3 7 -11 10 -11 10 -2 0 7 5 10 10 7 6 -3 10 2 10 11 0 10 3 14 7 11 3
-4 16 -1 28 7 19 12 22 12 22 0 0 -8 -2 -12 -5 -9 -7 7 -42 -14 -42 -26 0 -6
7 -3 16 5 8 9 20 14 25 10 5 -3 12 1 15 10 3 8 12 12 19 10 7 -3 21 5 30 18
l17 23 -6 -25 c-3 -14 -3 -19 0 -12 3 6 10 10 15 6 5 -3 9 -2 8 3 -4 22 2 25
15 8 13 -18 14 -18 11 5 -2 20 2 25 23 27 18 1 21 -1 11 -8 -10 -6 -8 -8 8 -6
24 1 37 22 26 40 -5 9 -2 8 8 0 19 -15 58 -13 52 3 -2 7 1 15 8 20 7 4 10 3 5
-4 -3 -6 -2 -13 3 -16 5 -4 12 3 16 14 4 11 11 17 17 14 6 -4 5 -10 -3 -16
-11 -8 -11 -9 1 -5 8 2 14 13 13 23 -3 18 -2 18 9 2 12 -16 14 -15 31 15 10
19 15 23 12 10 -5 -20 -4 -21 18 -10 14 6 22 17 20 24 -4 9 0 11 11 7 10 -4
16 -1 16 7 0 11 3 11 10 -1 7 -11 10 -11 10 -2 0 7 4 11 9 8 4 -3 13 6 19 19
13 27 27 32 35 13 3 -8 6 -7 6 4 1 16 36 35 55 30 18 -5 58 30 52 45 -5 13 -4
14 9 3 12 -10 15 -10 15 0 0 7 7 10 14 7 10 -4 13 -1 9 9 -3 7 -10 14 -16 14
-6 0 -7 3 -4 6 4 4 13 1 22 -6 10 -8 15 -9 15 -1 0 6 5 10 12 8 7 -1 12 4 13
12 0 8 6 16 14 19 9 3 11 0 6 -8 -6 -9 -4 -11 4 -6 7 5 10 15 6 23 -4 13 -3
14 10 3 12 -10 15 -10 15 3 0 10 8 14 26 12 18 -2 22 1 15 8 -16 16 -13 27 6
20 12 -5 14 -3 8 7 -6 10 -4 12 7 7 11 -4 18 2 22 16 4 15 8 18 14 10 5 -9 11
-6 21 8 9 16 9 19 0 14 -8 -5 -10 -4 -5 4 6 9 11 9 22 0 12 -10 13 -9 7 6 -5
15 -3 17 11 12 11 -4 15 -3 11 4 -4 6 2 13 14 16 11 3 18 9 15 14 -3 5 1 9 9
9 17 0 49 34 41 43 -4 4 1 9 10 13 9 3 13 11 9 18 -4 6 -1 6 9 -2 13 -10 17
-10 22 3 4 11 2 14 -6 9 -7 -5 -8 -3 -4 5 5 7 14 10 22 7 8 -3 13 -2 13 2 -3
21 3 32 17 32 8 0 12 5 9 10 -4 6 -11 7 -17 4 -7 -4 -8 -2 -4 4 5 9 13 9 27 2
10 -6 20 -7 20 -3 1 4 2 13 4 18 1 6 3 16 3 23 1 6 7 12 13 12 8 0 7 -6 -2
-17 -11 -14 -9 -14 9 1 14 12 18 22 12 26 -7 4 -5 12 6 21 12 9 15 10 10 2 -4
-8 -2 -13 5 -13 7 0 9 10 7 25 -4 18 -2 23 6 16 7 -5 18 -1 31 12 l20 20 -25
-13 c-23 -12 -24 -12 -11 3 7 10 19 17 27 17 18 0 27 17 13 26 -8 5 -9 3 -4
-6 5 -8 4 -11 -3 -6 -6 4 -9 13 -6 21 5 13 8 13 21 0 20 -20 22 -19 18 10 -1
18 1 22 9 16 8 -7 12 -4 13 10 1 12 -3 17 -9 13 -7 -4 -8 -2 -4 5 6 9 11 9 21
1 10 -8 15 -8 21 1 5 8 3 9 -6 4 -8 -5 -11 -3 -8 6 3 8 11 13 18 11 11 -2 11
0 1 12 -9 11 -9 16 0 22 8 5 9 3 4 -5 -6 -10 -3 -11 14 -2 11 7 21 14 21 17 0
3 -4 2 -10 -1 -15 -9 -12 9 6 31 13 16 15 16 10 2 -7 -25 1 -22 15 3 8 15 8
19 0 15 -6 -4 -11 -2 -11 3 0 6 5 11 10 11 6 0 10 8 8 18 -2 10 2 16 11 14 9
-2 11 3 7 14 -5 14 -4 15 8 5 11 -9 16 -9 22 0 4 8 3 9 -4 5 -7 -4 -12 -2 -12
3 0 6 5 11 10 11 6 0 10 9 10 21 0 11 5 17 10 14 6 -3 10 -1 10 5 0 6 4 9 9 6
12 -8 8 27 -4 36 -6 4 -2 8 8 8 11 0 15 4 11 12 -5 8 -2 9 10 5 14 -5 15 -3 6
13 -9 17 -8 19 7 13 15 -6 16 -4 6 8 -10 12 -9 20 2 36 8 11 12 23 9 26 -3 3
4 8 17 12 17 6 19 9 8 16 -11 7 -11 9 2 9 10 0 16 7 15 18 -1 11 6 16 17 16
17 -2 17 0 3 15 -14 15 -13 19 13 44 29 27 33 41 18 64 -4 7 2 18 15 27 20 15
18 21 -6 17 -5 -1 -3 5 4 14 7 9 19 14 25 11 8 -3 10 4 7 21 -3 15 1 29 9 34
8 5 9 9 3 9 -13 0 -15 31 -2 47 5 6 17 9 26 7 15 -5 14 -4 -1 6 -15 10 -16 13
-3 32 8 11 12 27 9 36 -4 10 -2 13 6 8 14 -9 11 16 -4 26 -6 5 -3 8 7 8 11 0
15 5 12 15 -4 8 -11 12 -17 8 -5 -3 -7 -1 -4 5 8 11 24 11 47 -2 8 -4 6 1 -5
11 -22 19 -25 36 -11 50 5 4 6 3 2 -4 -3 -6 -1 -15 6 -19 7 -4 10 -4 6 1 -4 4
-2 15 5 23 8 10 8 13 1 9 -7 -4 -14 0 -18 8 -3 8 -1 15 3 15 10 0 9 18 -3 40
-4 8 2 4 13 -9 23 -26 27 -21 9 12 -14 26 -18 56 -7 62 4 3 6 -6 5 -20 -2 -13
1 -22 5 -19 10 6 5 46 -7 65 -4 8 -3 9 4 5 8 -4 10 3 7 24 -2 17 0 28 6 24 5
-3 7 -9 4 -14 -3 -5 -1 -11 4 -14 15 -10 13 635 -2 653 -7 8 -7 12 -1 8 7 -4
10 5 9 25 -1 16 -9 34 -17 39 -10 5 -14 17 -11 28 3 10 0 22 -5 25 -6 3 -8 16
-4 28 4 15 2 19 -7 13 -10 -6 -11 -3 -3 12 7 12 7 25 1 34 -14 23 -10 32 9 18
15 -13 16 -12 3 4 -7 9 -10 17 -6 17 4 0 2 6 -4 13 -6 8 -8 17 -5 20 4 4 -4 4
-17 2 -23 -4 -23 -4 -5 10 18 14 15 20 -8 16 -5 -1 -4 4 2 12 9 10 9 17 -1 27
-10 10 -9 11 3 5 10 -6 9 -2 -3 13 -11 12 -16 26 -11 33 5 9 2 10 -11 5 -13
-5 -15 -3 -8 6 12 17 9 58 -7 68 -6 4 -12 11 -12 16 0 5 -4 18 -8 29 -4 11
-10 29 -12 40 -2 11 -10 19 -17 17 -7 -1 -10 2 -6 8 3 6 10 8 15 5 11 -7 7 22
-5 32 -4 4 -5 2 -1 -4 4 -7 5 -13 2 -13 -3 0 -10 10 -17 21 -8 15 -8 19 0 15
6 -4 11 -2 11 3 0 6 -5 11 -11 11 -5 0 -8 4 -4 9 3 5 0 13 -6 17 -7 4 -9 3 -5
-4 3 -6 2 -13 -3 -16 -11 -7 -9 13 3 33 6 9 5 12 -1 8 -6 -4 -14 0 -17 9 -3 8
-2 12 4 9 6 -3 7 1 4 10 -4 9 -9 13 -12 11 -6 -7 -31 25 -32 39 0 6 5 3 10 -5
7 -12 9 -10 7 7 0 12 -5 19 -9 17 -4 -3 -8 1 -8 8 0 9 -3 9 -10 -2 -5 -8 -10
-10 -10 -5 0 6 6 17 13 24 9 11 9 13 0 7 -8 -5 -13 -1 -13 11 0 15 -2 16 -10
3 -5 -8 -10 -10 -10 -5 0 6 6 17 13 24 10 11 9 12 -2 6 -10 -6 -13 -4 -9 7 7
17 -45 81 -57 70 -4 -4 -2 4 5 16 11 22 10 23 -10 17 -18 -6 -21 -4 -14 6 13
22 14 41 1 36 -7 -2 -20 5 -29 15 -18 18 -12 25 8 11 5 -5 -3 3 -19 17 -23 21
-26 28 -15 39 10 10 10 12 0 7 -6 -4 -12 -3 -12 3 0 6 -8 8 -17 4 -15 -5 -15
-3 1 9 19 15 19 16 -1 22 -12 4 -27 13 -34 22 -10 12 -9 13 6 8 13 -5 16 -4
11 4 -4 7 -16 12 -27 12 -12 0 -19 7 -19 20 0 11 -4 20 -9 20 -5 0 -14 13 -21
30 -7 16 -17 27 -22 24 -6 -4 -7 2 -3 17 7 24 7 24 -10 4 -9 -11 -14 -15 -11
-8 4 6 0 17 -7 25 -7 7 -16 21 -20 31 -3 9 -14 17 -24 18 -16 0 -16 1 2 9 17
8 16 9 -9 9 -23 1 -26 4 -17 15 10 12 8 14 -11 9 -18 -4 -20 -3 -8 6 11 8 12
11 2 11 -7 0 -10 5 -7 10 3 6 2 10 -4 10 -5 0 -12 -6 -14 -12 -3 -7 -6 -4 -7
7 -1 27 -26 59 -35 45 -3 -5 -11 -8 -16 -4 -6 4 -6 11 2 20 9 11 9 13 -2 10
-21 -8 -53 20 -45 40 6 15 4 15 -11 3 -9 -8 -14 -9 -10 -3 4 7 -2 14 -13 17
-12 3 -18 11 -15 19 4 9 0 15 -10 15 -8 0 -15 -5 -15 -10 0 -6 -3 -7 -6 -4 -4
4 -1 14 6 22 11 13 11 16 -1 13 -8 -2 -13 3 -11 12 3 11 -3 9 -20 -5 -17 -15
-19 -16 -9 -2 8 10 9 17 3 17 -6 0 -14 9 -17 20 -5 16 -10 18 -25 10 -15 -8
-18 -6 -16 13 3 20 -1 23 -23 20 -21 -4 -23 -2 -11 7 13 10 11 11 -7 7 -15 -3
-20 -1 -16 8 5 15 -41 50 -55 41 -6 -3 -15 1 -22 9 -7 8 -17 12 -24 8 -6 -4
-5 0 2 9 10 13 10 18 1 24 -8 4 -9 3 -5 -4 4 -7 3 -12 -2 -12 -5 0 -14 10 -21
23 -6 12 -9 14 -7 5 3 -12 1 -15 -9 -11 -8 3 -12 9 -9 14 3 5 -2 9 -11 9 -9 0
-13 -4 -10 -10 4 -6 -1 -7 -11 -3 -14 5 -13 8 6 18 15 8 19 15 11 19 -6 4 -11
2 -11 -5 0 -7 -9 -3 -20 9 -22 24 -40 31 -21 9 8 -10 7 -14 -4 -14 -7 0 -14 3
-13 6 3 28 -2 33 -19 20 -12 -10 -15 -11 -9 -1 8 14 -10 42 -27 42 -6 0 -2 -7
9 -16 18 -15 18 -15 -2 -5 -12 6 -25 7 -29 3 -3 -4 -6 -2 -5 3 5 24 -1 34 -17
28 -12 -5 -14 -3 -8 8 7 11 5 11 -10 -1 -10 -8 -16 -10 -12 -4 4 7 -5 14 -23
18 -19 3 -30 12 -30 22 0 11 -6 15 -20 11 -14 -4 -20 0 -21 11 -1 10 -4 7 -9
-8 l-8 -25 -1 24 c-1 18 -5 22 -22 18 -17 -5 -18 -3 -7 11 7 9 8 14 3 9 -4 -4
-19 0 -31 8 -21 13 -24 13 -34 -3 -9 -15 -10 -15 -8 5 2 12 -1 21 -7 20 -5 -1
-8 -8 -7 -16 3 -11 1 -11 -11 0 -8 8 -12 18 -9 23 3 5 -1 5 -9 0 -20 -12 -40
-14 -33 -3 3 5 10 6 16 3 6 -4 8 -2 5 4 -4 5 -17 8 -29 4 -16 -4 -19 -2 -13 8
6 10 4 11 -6 4 -20 -12 -40 -14 -33 -3 3 5 11 6 17 3 7 -4 8 -3 4 2 -9 9 -13
10 -43 13 -8 0 -13 5 -9 10 3 6 -6 8 -20 5 -14 -2 -25 0 -25 6 0 6 -5 8 -10 5
-6 -4 -8 -12 -4 -18 3 -7 -2 -3 -11 8 -9 11 -23 19 -32 17 -8 -2 -12 1 -9 6 7
12 -13 10 -33 -2 -11 -7 -13 -5 -7 9 7 18 6 18 -12 2 -18 -17 -20 -17 -33 0
-13 16 -12 17 4 4 15 -12 17 -11 17 2 0 12 -7 14 -27 11 -15 -3 -31 -8 -36
-11 -6 -3 -7 -2 -4 3 3 6 2 16 -4 24 -7 13 -9 12 -9 -2 0 -17 -23 -19 -37 -3
-4 4 -3 5 3 2 6 -3 11 0 11 7 0 11 -4 12 -18 3 -10 -6 -15 -15 -12 -21 3 -5 1
-6 -6 -2 -6 4 -9 11 -6 16 8 13 -27 22 -39 10 -8 -8 -6 -9 7 -5 9 4 17 3 17
-3 0 -16 -31 -7 -48 14 -14 18 -14 18 -9 -4 6 -23 5 -24 -15 -5 -12 10 -19 13
-15 8 3 -6 -3 -11 -13 -11 -13 0 -16 4 -9 12 6 8 5 13 -5 17 -8 3 -157 6 -331
6 -248 1 -314 -2 -309 -12 5 -9 4 -9 -7 1 -16 15 -29 16 -29 1 0 -5 4 -7 10
-4 6 4 7 -1 3 -11 -5 -14 -8 -13 -25 7 -11 13 -17 18 -13 12z m-35 -23 c0 -5
-5 -10 -11 -10 -5 0 -7 5 -4 10 3 6 8 10 11 10 2 0 4 -4 4 -10z m1170 -90 c0
-5 -5 -10 -11 -10 -5 0 -7 5 -4 10 3 6 8 10 11 10 2 0 4 -4 4 -10z m220 -75
c11 -13 10 -14 -4 -9 -9 3 -16 10 -16 15 0 13 6 11 20 -6z m524 -293 c3 -5 -1
-9 -9 -9 -8 0 -12 4 -9 9 3 4 7 8 9 8 2 0 6 -4 9 -8z m-3498 -464 c-9 -5 -13
-14 -10 -20 4 -7 2 -8 -4 -4 -9 5 -9 12 0 26 7 10 16 16 21 13 5 -3 2 -10 -7
-15z m-196 -268 c0 -5 -5 -10 -11 -10 -5 0 -7 5 -4 10 3 6 8 10 11 10 2 0 4
-4 4 -10z m4630 -574 c0 -3 -4 -8 -10 -11 -5 -3 -10 -1 -10 4 0 6 5 11 10 11
6 0 10 -2 10 -4z m-4940 -226 c0 -5 -2 -10 -4 -10 -3 0 -8 5 -11 10 -3 6 -1
10 4 10 6 0 11 -4 11 -10z m5036 -190 c0 -11 -4 -20 -8 -20 -4 0 -8 6 -8 14 0
8 -6 17 -12 19 -7 3 -4 6 7 6 14 1 21 -5 21 -19z m-5023 -945 c-3 -9 -8 -14
-10 -11 -3 3 -2 9 2 15 9 16 15 13 8 -4z m4863 -347 c-3 -21 -16 -38 -29 -38
-7 0 -6 4 3 10 8 5 16 14 16 20 2 16 4 20 8 20 2 0 3 -6 2 -12z m-4686 -178
c0 -5 -2 -10 -4 -10 -3 0 -8 5 -11 10 -3 6 -1 10 4 10 6 0 11 -4 11 -10z
m4530 -140 c0 -5 -5 -10 -11 -10 -5 0 -7 5 -4 10 3 6 8 10 11 10 2 0 4 -4 4
-10z m-496 -631 c-3 -5 -10 -7 -15 -3 -5 3 -7 10 -3 15 3 5 10 7 15 3 5 -3 7
-10 3 -15z m-3347 -85 c-3 -3 -12 -4 -19 -1 -8 3 -5 6 6 6 11 1 17 -2 13 -5z
m38 -22 c-3 -3 2 -14 12 -24 24 -27 10 -22 -15 5 -17 18 -19 24 -7 24 8 0 13
-3 10 -5z m2935 -177 c0 -2 -9 -9 -19 -15 -14 -7 -22 -7 -27 2 -4 6 -3 8 4 4
6 -3 13 -2 17 4 6 10 25 14 25 5z m-789 -328 c-8 -8 -14 -7 -23 2 -11 10 -9
11 6 5 15 -6 17 -4 11 6 -6 9 -4 11 4 5 9 -5 10 -10 2 -18z m-864 -32 c0 -8
-4 -12 -9 -9 -5 3 -6 10 -3 15 9 13 12 11 12 -6z m623 -7 c0 -11 -12 -10 -30
2 -12 7 -10 9 8 7 12 0 22 -5 22 -9z"/>
<path d="M3687 4869 c7 -7 15 -10 18 -7 3 3 -2 9 -12 12 -14 6 -15 5 -6 -5z"/>
<path d="M4010 4681 c0 -6 4 -13 10 -16 6 -3 7 1 4 9 -7 18 -14 21 -14 7z"/>
<path d="M4278 4463 c7 -3 16 -2 19 1 4 3 -2 6 -13 5 -11 0 -14 -3 -6 -6z"/>
<path d="M4320 4426 c0 -2 7 -9 15 -16 9 -7 15 -8 15 -2 0 5 -7 12 -15 16 -8
3 -15 4 -15 2z"/>
<path d="M716 4367 c3 -10 9 -15 12 -12 3 3 0 11 -7 18 -10 9 -11 8 -5 -6z"/>
<path d="M4626 4093 c-6 -14 -5 -15 5 -6 7 7 10 15 7 18 -3 3 -9 -2 -12 -12z"/>
<path d="M4707 3959 c7 -7 15 -10 18 -7 3 3 -2 9 -12 12 -14 6 -15 5 -6 -5z"/>
<path d="M4980 3421 c0 -6 4 -13 10 -16 6 -3 7 1 4 9 -7 18 -14 21 -14 7z"/>
<path d="M5085 3040 c3 -5 8 -10 11 -10 2 0 4 5 4 10 0 6 -5 10 -11 10 -5 0
-7 -4 -4 -10z"/>
<path d="M5101 2964 c0 -11 3 -14 6 -6 3 7 2 16 -1 19 -3 4 -6 -2 -5 -13z"/>
<path d="M89 1803 c-13 -16 -12 -17 4 -4 9 7 17 15 17 17 0 8 -8 3 -21 -13z"/>
<path d="M5000 1801 c0 -6 4 -12 8 -15 5 -3 9 1 9 9 0 8 -4 15 -9 15 -4 0 -8
-4 -8 -9z"/>
<path d="M4857 1417 l-17 -32 20 24 c17 20 26 41 18 41 -2 0 -11 -15 -21 -33z"/>
<path d="M386 1158 c3 -5 10 -6 15 -3 13 9 11 12 -6 12 -8 0 -12 -4 -9 -9z"/>
<path d="M630 861 c5 -11 15 -23 21 -27 6 -3 3 5 -6 20 -20 30 -30 35 -15 7z"/>
<path d="M793 685 c0 -8 4 -15 9 -15 4 0 8 4 8 9 0 6 -4 12 -8 15 -5 3 -9 -1
-9 -9z"/>
<path d="M1183 385 c0 -8 4 -12 9 -9 5 3 6 10 3 15 -9 13 -12 11 -12 -6z"/>
<path d="M3838 323 c7 -3 16 -2 19 1 4 3 -2 6 -13 5 -11 0 -14 -3 -6 -6z"/>
<path d="M1613 165 c0 -8 4 -12 9 -9 5 3 6 10 3 15 -9 13 -12 11 -12 -6z"/>
<path d="M1720 130 c-9 -6 -10 -10 -3 -10 6 0 15 5 18 10 8 12 4 12 -15 0z"/>
<path d="M1811 103 c-1 -17 16 -25 25 -12 4 7 3 9 -4 5 -5 -3 -13 0 -15 6 -4
9 -6 10 -6 1z"/>
</g>
</svg>
